# xmcd
#
# Track frame offsets:
#	150
#	12519
#	21875
#	36189
#	48842
#	64923
#	77224
#	87206
#	101665
#	112982
#	125712
#	137803
#	153564
#	164129
#	178169
#	189002
#
# Disc length: 2703 seconds
#
# Revision: 0
# Processed by: cddbd v1.5.2PL0 Copyright (c) Steve Scherf et al.
# Submitted via: EasyCDDAExtractor 11.0.2.1
#
DISCID=d90a8d10
DTITLE=Bjøro Håland - To My Friends
DYEAR=1900
DGENRE=
TTITLE0=Kissed by the rain and warmed by the sun
TTITLE1=A little miracle
TTITLE2=Please change your mind
TTITLE3=Little ole dime
TTITLE4=Forget me not
TTITLE5=Am I losing you
TTITLE6=Country is
TTITLE7=Blue eyes crying in the rain
TTITLE8=Some broken hearts never mend
TTITLE9=Love or something like it
TTITLE10=The talking walls
TTITLE11=One day at a time
TTITLE12=Speed traps,weigh station and detour signs
TTITLE13=When you were loving me
TTITLE14=Georgia boy
TTITLE15=Old flames can't hold a candle to you
EXTD=
EXTT0=
EXTT1=
EXTT2=
EXTT3=
EXTT4=
EXTT5=
EXTT6=
EXTT7=
EXTT8=
EXTT9=
EXTT10=
EXTT11=
EXTT12=
EXTT13=
EXTT14=
EXTT15=
PLAYORDER=
